<svg width="172" height="164" viewBox="0 0 172 164" fill="none" xmlns="http://www.w3.org/2000/svg">
<path d="M111.516 17.6602H14.4653C9.5927 17.6602 5.64258 20.1377 5.64258 23.1939V84.0647C5.64258 87.121 9.5927 89.5984 14.4653 89.5984H111.516C116.388 89.5984 120.338 87.121 120.338 84.0647V23.1939C120.338 20.1377 116.388 17.6602 111.516 17.6602Z" fill="black" stroke="black" stroke-width="10.3153" stroke-linecap="round" stroke-linejoin="round"/>
<path d="M138.712 24.7061L166.38 13.6387V68.9758L138.712 57.9084" fill="white"/>
<path d="M138.712 24.7061L166.38 13.6387V68.9758L138.712 57.9084" stroke="black" stroke-width="10.3153" stroke-linecap="round" stroke-linejoin="round"/>
<path d="M126.983 5.33902H29.1857C24.2756 5.33902 20.2951 7.81657 20.2951 10.8727V71.7436C20.2951 74.7999 24.2756 77.2773 29.1857 77.2773H126.983C131.893 77.2773 135.873 74.7999 135.873 71.7436V10.8727C135.873 7.81657 131.893 5.33902 126.983 5.33902Z" fill="white" stroke="black" stroke-width="10.3153" stroke-linecap="round" stroke-linejoin="round"/>
<path d="M21.9043 6.75879L6.93601 20.3319" stroke="black" stroke-width="10.3153" stroke-linecap="round"/>
<path d="M135.211 73.9103L120.339 86.6114" stroke="black" stroke-width="10.3153" stroke-linecap="round"/>
<path d="M101.08 25.8281L117.045 38.8571C118.597 40.1238 118.597 42.4954 117.045 43.762L101.08 56.791" stroke="black" stroke-width="7.9137" stroke-linecap="round" stroke-linejoin="round"/>
<path d="M55.0869 56.79L39.1227 43.761C37.5707 42.4944 37.5707 40.1228 39.1227 38.8562L55.0869 25.8271" stroke="black" stroke-width="7.9137" stroke-linecap="round" stroke-linejoin="round"/>
<path d="M86.0439 25.8271L70.1236 56.791" stroke="black" stroke-width="7.9137" stroke-linecap="round"/>
<path d="M20.2459 116.416H29.9089V154.42H51.8289L50.7912 162.721H20.2459V116.416ZM58.1185 128.868H67.1978V162.721H58.1185V128.868ZM57.9888 116.416H67.3275V124.588H57.9888V116.416ZM72.4265 128.868H82.9325L90.5202 152.409L98.1079 128.868H108.16L94.8004 162.721H85.7211L72.4265 128.868ZM142.409 152.15C141.804 155.954 140.269 158.851 137.804 160.84C135.383 162.786 131.838 163.758 127.169 163.758C121.548 163.758 117.311 162.202 114.458 159.089C111.647 155.976 110.242 151.566 110.242 145.859C110.242 143.006 110.653 140.476 111.474 138.271C112.296 136.023 113.442 134.121 114.912 132.565C116.425 131.008 118.219 129.841 120.294 129.063C122.37 128.241 124.661 127.83 127.169 127.83C132.357 127.83 136.248 129.322 138.842 132.305C141.479 135.288 142.798 139.309 142.798 144.368V147.999H119.322C119.408 150.723 120.1 152.863 121.397 154.42C122.694 155.933 124.639 156.689 127.234 156.689C130.822 156.689 132.94 155.176 133.589 152.15H142.409ZM134.043 142.033C134.043 139.698 133.459 137.882 132.292 136.585C131.168 135.288 129.395 134.64 126.974 134.64C125.764 134.64 124.704 134.834 123.796 135.223C122.888 135.613 122.11 136.153 121.462 136.845C120.856 137.493 120.381 138.271 120.035 139.179C119.689 140.044 119.495 140.995 119.451 142.033H134.043Z" fill="black"/>
</svg>
